<svg id="Layer_1" data-name="Layer 1" xmlns="http://www.w3.org/2000/svg" viewBox="0 0 25 25"><title>Book Bookmark</title><path id="Book_Bookmark" data-name="Book Bookmark" d="M21.75,0H18V10.5a.5.5,0,0,1-.8.4L15.5,9.63,13.8,10.9a.5.5,0,0,1-.8-.4V0H4A2,2,0,0,0,2,2V22.7s0,.07,0,.11A2,2,0,0,0,4,25H20.75A1.25,1.25,0,0,0,22,23.75V22h-.25A1.25,1.25,0,0,0,23,20.75V1.25A1.25,1.25,0,0,0,21.75,0ZM6,1H7V21H6ZM21,23.75a.25.25,0,0,1-.25.25H4a1,1,0,0,1-1-1l0-.21A1.06,1.06,0,0,1,4,22H21Z" fill="#0e1d25"/></svg>